<svg width="44" height="64" viewBox="0 0 44 64" fill="none" xmlns="http://www.w3.org/2000/svg">
<g clip-path="url(#clip0_13809_1140)">
<path d="M22 32.0002C22 29.1712 23.1238 26.4581 25.1242 24.4577C27.1246 22.4573 29.8377 21.3335 32.6667 21.3335C35.4956 21.3335 38.2087 22.4573 40.2091 24.4577C42.2095 26.4581 43.3333 29.1712 43.3333 32.0002C43.3333 34.8291 42.2095 37.5422 40.2091 39.5426C38.2087 41.543 35.4956 42.6668 32.6667 42.6668C29.8377 42.6668 27.1246 41.543 25.1242 39.5426C23.1238 37.5422 22 34.8291 22 32.0002Z" fill="#1ABCFE"/>
<path d="M0.666992 53.3332C0.666992 50.5042 1.7908 47.7911 3.79119 45.7907C5.79157 43.7903 8.50468 42.6665 11.3337 42.6665H22.0003V53.3332C22.0003 56.1621 20.8765 58.8753 18.8761 60.8756C16.8757 62.876 14.1626 63.9998 11.3337 63.9998C8.50468 63.9998 5.79157 62.876 3.79119 60.8756C1.7908 58.8753 0.666992 56.1621 0.666992 53.3332Z" fill="#0ACF83"/>
<path d="M22 0V21.3333H32.6667C35.4956 21.3333 38.2087 20.2095 40.2091 18.2091C42.2095 16.2087 43.3333 13.4956 43.3333 10.6667C43.3333 7.83769 42.2095 5.12458 40.2091 3.12419C38.2087 1.12381 35.4956 0 32.6667 0L22 0Z" fill="#FF7262"/>
<path d="M0.666992 10.6667C0.666992 13.4956 1.7908 16.2087 3.79119 18.2091C5.79157 20.2095 8.50468 21.3333 11.3337 21.3333H22.0003V0H11.3337C8.50468 0 5.79157 1.12381 3.79119 3.12419C1.7908 5.12458 0.666992 7.83769 0.666992 10.6667Z" fill="#F24E1E"/>
<path d="M0.666992 32.0002C0.666992 34.8291 1.7908 37.5422 3.79119 39.5426C5.79157 41.543 8.50468 42.6668 11.3337 42.6668H22.0003V21.3335H11.3337C8.50468 21.3335 5.79157 22.4573 3.79119 24.4577C1.7908 26.4581 0.666992 29.1712 0.666992 32.0002Z" fill="#A259FF"/>
</g>
<defs>
<clipPath id="clip0_13809_1140">
<rect width="42.6667" height="64" fill="white" transform="translate(0.666992)"/>
</clipPath>
</defs>
</svg>
