<svg width="64" height="64" viewBox="0 0 64 64" fill="none" xmlns="http://www.w3.org/2000/svg">
<g clip-path="url(#clip0_13809_1091)">
<mask id="mask0_13809_1091" style="mask-type:alpha" maskUnits="userSpaceOnUse" x="0" y="0" width="64" height="64">
<path d="M32 64C49.6731 64 64 49.6731 64 32C64 14.3269 49.6731 0 32 0C14.3269 0 0 14.3269 0 32C0 49.6731 14.3269 64 32 64Z" fill="black"/>
</mask>
<g mask="url(#mask0_13809_1091)">
<path d="M31.9997 62.9336C49.0837 62.9336 62.9331 49.0842 62.9331 32.0002C62.9331 14.9162 49.0837 1.06689 31.9997 1.06689C14.9157 1.06689 1.06641 14.9162 1.06641 32.0002C1.06641 49.0842 14.9157 62.9336 31.9997 62.9336Z" fill="black" stroke="white" stroke-width="6"/>
<path d="M53.1586 56.0073L24.584 19.2002H19.2002V44.7895H23.5073V24.6699L49.7776 58.6118C50.963 57.8185 52.0923 56.9478 53.1586 56.0073Z" fill="url(#paint0_linear_13809_1091)"/>
<path d="M45.1553 19.2002H40.8887V44.8002H45.1553V19.2002Z" fill="url(#paint1_linear_13809_1091)"/>
</g>
</g>
<defs>
<linearGradient id="paint0_linear_13809_1091" x1="38.7558" y1="41.4224" x2="51.378" y2="57.0669" gradientUnits="userSpaceOnUse">
<stop stop-color="white"/>
<stop offset="1" stop-color="white" stop-opacity="0"/>
</linearGradient>
<linearGradient id="paint1_linear_13809_1091" x1="43.022" y1="19.2002" x2="42.9505" y2="38.0002" gradientUnits="userSpaceOnUse">
<stop stop-color="white"/>
<stop offset="1" stop-color="white" stop-opacity="0"/>
</linearGradient>
<clipPath id="clip0_13809_1091">
<rect width="64" height="64" fill="white"/>
</clipPath>
</defs>
</svg>
