<svg width="65" height="64" viewBox="0 0 65 64" fill="none" xmlns="http://www.w3.org/2000/svg">
<g clip-path="url(#clip0_13809_1106)">
<path d="M64.5 49.5898C62.172 50.1818 60.732 49.6158 59.44 47.6758L50.252 34.9638L48.924 33.2038L38.194 47.7178C36.968 49.4638 35.682 50.2238 33.394 49.6058L47.134 31.1618L34.342 14.5018C36.542 14.0738 38.062 14.2918 39.412 16.2618L48.942 29.1318L58.542 16.3318C59.772 14.5858 61.094 13.9218 63.302 14.5658L58.342 21.1418L51.622 29.8918C50.822 30.8918 50.932 31.5758 51.668 32.5418L64.5 49.5898ZM0.516 30.8538L1.64 25.3258C4.7 14.3858 17.24 9.83977 25.888 16.5998C30.942 20.5758 32.198 26.1998 31.948 32.4998H3.46C3.032 43.8398 11.194 50.6838 21.6 47.1918C25.25 45.9658 27.4 43.1078 28.476 39.5318C29.022 37.7398 29.926 37.4598 31.61 37.9718C30.75 42.4438 28.81 46.1798 24.71 48.5178C18.584 52.0178 9.84 50.8858 5.24 46.0218C2.5 43.1998 1.368 39.6238 0.86 35.7998C0.78 35.1678 0.62 34.5658 0.5 33.9598C0.510667 32.9251 0.516 31.8904 0.516 30.8558V30.8538ZM3.512 30.0938H29.256C29.088 21.8938 23.982 16.0698 17.004 16.0198C9.344 15.9598 3.844 21.6458 3.512 30.0938Z" fill="black"/>
</g>
<defs>
<clipPath id="clip0_13809_1106">
<rect width="64" height="64" fill="white" transform="translate(0.5)"/>
</clipPath>
</defs>
</svg>
