<svg width="67" height="64" viewBox="0 0 67 64" fill="none" xmlns="http://www.w3.org/2000/svg">
<path fill-rule="evenodd" clip-rule="evenodd" d="M38.2878 1.06152C37.836 1.06152 37.4165 1.15861 37.0292 1.28806C37.8521 1.83821 38.3039 2.56636 38.5298 3.39158C38.546 3.50485 38.5782 3.58576 38.5943 3.69902C38.6105 3.79611 38.6266 3.89319 38.6266 3.99028C38.6912 5.4142 38.2555 5.59219 37.9489 6.4336C37.481 7.51773 37.6101 8.68276 38.1748 9.62126C38.2232 9.73452 38.2878 9.86397 38.3684 9.97724C37.7553 5.88345 41.1598 5.26858 41.7891 3.99028C41.8375 2.87379 40.9178 2.12947 40.1917 1.61168C39.4979 1.19097 38.8686 1.06152 38.2878 1.06152ZM43.4187 1.98384C43.3541 2.356 43.4025 2.25891 43.3865 2.45309C43.3703 2.58253 43.3703 2.74435 43.3542 2.87379C43.322 3.00324 43.2896 3.13269 43.2413 3.26214C43.209 3.39158 43.1606 3.52103 43.1122 3.65048C43.0476 3.77993 42.9992 3.89319 42.9347 4.02264C42.8863 4.08739 42.854 4.15209 42.8056 4.21681C42.7734 4.26536 42.741 4.3139 42.7088 4.36244C42.6281 4.47571 42.5475 4.58898 42.4668 4.68606C42.37 4.78315 42.2893 4.89641 42.1763 4.97732V4.99352C42.0795 5.07443 41.9827 5.17151 41.8698 5.25242C41.5309 5.51131 41.1437 5.70548 40.7887 5.9482C40.6758 6.0291 40.5628 6.09383 40.466 6.19092C40.3531 6.27182 40.2563 6.35272 40.1595 6.44981C40.0465 6.54689 39.9658 6.64398 39.869 6.75725C39.7884 6.85434 39.6916 6.9676 39.627 7.08087C39.5463 7.19413 39.4657 7.3074 39.4011 7.42067C39.3366 7.55011 39.2882 7.66338 39.2236 7.79283C39.1752 7.92227 39.1268 8.03554 39.0946 8.16499C39.0461 8.31062 39.0139 8.44007 38.9816 8.56952C38.9655 8.63427 38.9655 8.71514 38.9494 8.77987C38.9332 8.84462 38.9332 8.90931 38.9171 8.97404C38.9171 9.10349 38.901 9.24912 38.901 9.37856C38.901 9.47565 38.901 9.57273 38.9171 9.66982C38.9171 9.79927 38.9333 9.92871 38.9655 10.0743C38.9817 10.2038 39.0139 10.3332 39.0462 10.4627C39.0946 10.5921 39.1269 10.7216 39.1753 10.851C39.2075 10.9319 39.256 11.0128 39.2882 11.0776L35.5772 9.63746C34.9479 9.45947 34.3348 9.29766 33.7055 9.15203C33.3667 9.07113 33.0278 8.99022 32.689 8.90932C31.7209 8.71514 30.7367 8.56952 29.7524 8.47243C29.7202 8.47243 29.704 8.45623 29.6718 8.45623C28.7036 8.35915 27.7517 8.3106 26.7836 8.3106C26.0736 8.3106 25.3637 8.34294 24.6699 8.39151C23.6856 8.45626 22.7014 8.58568 21.7172 8.74748C21.4751 8.77982 21.2331 8.8284 20.9911 8.87694C20.4909 8.97402 20.0069 9.08729 19.5389 9.20056C19.2969 9.26531 19.0549 9.33 18.8129 9.39472C18.5708 9.49181 18.345 9.60508 18.1191 9.70217C17.9416 9.78307 17.7641 9.86397 17.5866 9.94488C17.5544 9.96108 17.522 9.96108 17.5059 9.97722C17.3446 10.0581 17.1994 10.1228 17.0542 10.2038C17.0057 10.22 16.9735 10.2361 16.9412 10.2523C16.7637 10.3332 16.5862 10.4303 16.441 10.5112C16.3281 10.5597 16.2151 10.6245 16.1183 10.673C16.0699 10.7053 16.0054 10.7378 15.9731 10.7539C15.8279 10.8348 15.6827 10.9157 15.5536 10.9966C15.4084 11.0775 15.2793 11.1584 15.1663 11.2393C15.0534 11.3202 14.9405 11.385 14.8436 11.4659C14.8275 11.4821 14.8114 11.4821 14.7952 11.4982C14.6984 11.563 14.5855 11.6438 14.4887 11.7247C14.4887 11.7247 14.4725 11.7409 14.4564 11.7571C14.3758 11.8218 14.2951 11.8865 14.2144 11.9512C14.1822 11.9674 14.1498 11.9998 14.1176 12.016C14.0369 12.0807 13.9562 12.1616 13.8756 12.2263C13.8594 12.2587 13.8272 12.2749 13.811 12.2911C13.7142 12.3882 13.6174 12.4691 13.5206 12.5662C13.5044 12.5662 13.5044 12.5824 13.4883 12.5985C13.3915 12.6794 13.2947 12.7765 13.1979 12.8736C13.1817 12.8898 13.1817 12.9059 13.1657 12.9059C13.085 12.9868 13.0043 13.0677 12.9236 13.1648C12.8914 13.1972 12.843 13.2296 12.8107 13.2619C12.73 13.359 12.6332 13.4561 12.5364 13.5532C12.5202 13.5855 12.488 13.6017 12.4718 13.6341C12.3427 13.7635 12.2298 13.893 12.1007 14.0224C12.0846 14.0386 12.0685 14.0547 12.0523 14.071C11.7941 14.346 11.5199 14.6211 11.2294 14.8638C10.939 15.1227 10.6324 15.3654 10.3259 15.5758C10.0032 15.8023 9.6966 15.9965 9.35776 16.1907C9.03506 16.3686 8.69622 16.5305 8.34125 16.6761C8.00242 16.8217 7.64745 16.9512 7.29248 17.0644C6.6148 17.2101 5.921 17.4851 5.324 17.5337C5.19492 17.5337 5.04971 17.566 4.92063 17.5822C4.77541 17.6146 4.64633 17.647 4.51725 17.6793C4.38817 17.7278 4.25909 17.7764 4.13001 17.8249C4.00093 17.8735 3.87185 17.9382 3.74277 18.0029C3.62982 18.0838 3.50075 18.1486 3.3878 18.2295C3.27486 18.3104 3.16191 18.4074 3.0651 18.5045C2.95216 18.5854 2.83921 18.6987 2.7424 18.7958C2.64558 18.9091 2.54877 19.0061 2.4681 19.1194C2.38743 19.2489 2.29062 19.3621 2.22607 19.4916C2.1454 19.6048 2.06473 19.7343 2.00018 19.8637C1.93562 20.0094 1.87111 20.1388 1.8227 20.2844C1.77429 20.4139 1.72589 20.5595 1.67748 20.7051C1.64524 20.8346 1.61292 20.964 1.59681 21.0935C1.59681 21.1097 1.58065 21.1258 1.58065 21.142C1.54841 21.2877 1.54841 21.4818 1.53224 21.5789C1.51608 21.6922 1.5 21.7893 1.5 21.9025C1.5 21.9673 1.5 22.0482 1.51616 22.1129C1.53232 22.2262 1.5484 22.3232 1.58073 22.4203C1.61297 22.5174 1.64529 22.6145 1.69367 22.7116V22.7278C1.74207 22.8249 1.80662 22.922 1.87115 23.0191C1.93572 23.1161 2.00024 23.2132 2.08091 23.3103C2.16158 23.3912 2.25839 23.4883 2.35521 23.5692C2.45202 23.6663 2.54883 23.7472 2.66177 23.8281C3.04901 24.1679 3.14582 24.2812 3.64601 24.5401C3.72668 24.5886 3.80736 24.621 3.90417 24.6695C3.92034 24.6695 3.93642 24.6857 3.95258 24.6857C3.95258 24.7181 3.95258 24.7343 3.96874 24.7666C3.9849 24.8961 4.01715 25.0255 4.04941 25.155C4.08166 25.3006 4.13009 25.4301 4.1785 25.5433C4.22691 25.6404 4.25917 25.7375 4.30758 25.8346C4.32374 25.8669 4.33982 25.8993 4.35598 25.9155C4.42055 26.0449 4.48506 26.1582 4.5496 26.2715C4.63028 26.3847 4.71095 26.498 4.79163 26.6113C4.8723 26.7083 4.96911 26.8216 5.06592 26.9187C5.16273 27.0158 5.25954 27.0967 5.37249 27.1938C5.37249 27.1938 5.38865 27.21 5.40474 27.21C5.50155 27.2909 5.59836 27.3718 5.69517 27.4365C5.80811 27.5174 5.92106 27.5822 6.05014 27.6469C6.16309 27.7116 6.29216 27.7763 6.42124 27.8249C6.51805 27.8734 6.63099 27.9058 6.74394 27.9381C6.76011 27.9544 6.77619 27.9544 6.80851 27.9705C6.87308 27.9867 6.95372 28.0028 7.01826 28.019C6.96986 28.8928 6.9537 29.718 7.08283 30.0093C7.22804 30.3329 7.93798 29.3459 8.64792 28.2132C8.55111 29.3297 8.48657 30.6403 8.64792 31.0287C8.82541 31.4332 9.79351 30.1711 10.6325 28.7795C22.0723 26.1259 32.5116 34.0545 33.6088 45.2517C33.3991 43.5042 31.2531 42.5333 30.2689 42.7761C29.7848 43.9735 28.9619 45.5106 27.6389 46.4653C27.7518 45.3974 27.7034 44.2971 27.4775 43.2291C27.1225 44.7178 26.4287 46.1093 25.4768 47.3067C23.9439 47.42 22.4111 46.6757 21.6043 45.5592C21.5398 45.5106 21.5237 45.4136 21.4753 45.3488C21.4269 45.2356 21.3785 45.1223 21.3462 45.009C21.2978 44.8958 21.2655 44.7825 21.2494 44.6692C21.2332 44.556 21.2332 44.4427 21.2332 44.3133C21.2332 44.2323 21.2332 44.1514 21.2332 44.0705C21.2494 43.9573 21.2816 43.844 21.3139 43.7307C21.3461 43.6175 21.3785 43.5042 21.4268 43.3909C21.4914 43.2777 21.5398 43.1644 21.6205 43.0511C21.8948 42.2744 21.8948 41.6434 21.3946 41.2712C21.2978 41.2065 21.201 41.158 21.088 41.1094C21.0234 41.0932 20.9428 41.0609 20.8783 41.0447C20.8298 41.0285 20.7976 41.0123 20.7492 40.9961C20.6362 40.9638 20.5233 40.9314 20.4103 40.9152C20.2974 40.8829 20.1844 40.8667 20.0715 40.8667C19.9586 40.8505 19.8295 40.8343 19.7165 40.8343C19.6359 40.8343 19.5552 40.8505 19.4745 40.8505C19.3454 40.8505 19.2325 40.8668 19.1195 40.8991C19.0066 40.9153 18.8936 40.9314 18.7807 40.9638C18.6678 40.9962 18.5548 41.0286 18.4419 41.0771C18.3289 41.1256 18.2321 41.1742 18.1192 41.2227C18.0224 41.2713 17.9255 41.336 17.8126 41.3845C14.0531 43.844 16.2959 49.6045 18.8614 51.2711C17.8933 51.4491 16.909 51.6595 16.6347 51.8698C16.6186 51.886 16.6025 51.9021 16.6025 51.9021C17.2963 52.3228 18.0224 52.6788 18.7807 52.9863C19.8134 53.3261 20.9105 53.6335 21.3946 53.763V53.7792C22.7338 54.0542 24.0891 54.1513 25.4606 54.0704C32.6084 53.5688 38.4655 48.1158 39.5304 40.9315C39.5626 41.0771 39.5949 41.2065 39.6272 41.3522C39.6756 41.6434 39.7401 41.9509 39.7724 42.2583V42.2745C39.8046 42.4202 39.8208 42.5658 39.837 42.6952V42.76C39.8531 42.9056 39.8692 43.0512 39.8692 43.1807C39.8854 43.3587 39.9015 43.5367 39.9015 43.7147V43.9736C39.9015 44.0545 39.9176 44.1515 39.9176 44.2325C39.9176 44.3295 39.9015 44.4266 39.9015 44.5237V44.7502C39.9015 44.8635 39.8853 44.9606 39.8853 45.0739C39.8853 45.1386 39.8853 45.2033 39.8691 45.2842C39.8691 45.3975 39.853 45.5107 39.853 45.6402C39.8368 45.6887 39.8368 45.7373 39.8368 45.7858C39.8206 45.9153 39.8045 46.0285 39.7884 46.158C39.7884 46.2065 39.7884 46.2551 39.7722 46.3036C39.756 46.4654 39.7238 46.6111 39.7077 46.7729V46.7891V46.8053C39.6754 46.9509 39.6431 47.1127 39.6108 47.2584V47.3069C39.5786 47.4525 39.5463 47.5982 39.514 47.7438C39.514 47.76 39.4979 47.7923 39.4979 47.8085C39.4656 47.9542 39.4333 48.0998 39.3849 48.2454V48.294C39.3365 48.4558 39.2881 48.6014 39.2559 48.747C39.2397 48.7632 39.2397 48.7794 39.2397 48.7794C39.1913 48.9412 39.1429 49.103 39.0945 49.2648C39.0299 49.4266 38.9816 49.5722 38.917 49.734C38.8525 49.8959 38.8041 50.0577 38.7395 50.2033C38.675 50.3651 38.6104 50.5107 38.5459 50.6725H38.5297C38.4652 50.8182 38.4006 50.98 38.32 51.1256C38.3038 51.1742 38.2877 51.2065 38.2716 51.2389C38.2554 51.2551 38.2554 51.2712 38.2393 51.2874C37.1905 53.4071 35.6416 55.2679 33.7054 56.7242C33.5763 56.8051 33.4472 56.9022 33.3181 56.9993C33.2859 57.0316 33.2375 57.0478 33.2052 57.0802C33.0922 57.1611 32.9793 57.242 32.8502 57.3229L32.8986 57.42H32.9148C33.1407 57.3877 33.3666 57.3553 33.5924 57.3229H33.6086C34.0281 57.2582 34.4476 57.1773 34.8671 57.0964C34.9801 57.0802 35.1092 57.0478 35.2221 57.0155C35.3028 56.9992 35.3673 56.9831 35.448 56.9669C35.5609 56.9507 35.6739 56.9184 35.7868 56.9022C35.8836 56.8699 35.9805 56.8536 36.0773 56.8213C37.6908 56.4329 39.2559 55.899 40.7564 55.2679C38.191 58.7792 34.7542 61.6108 30.7366 63.4717C32.5921 63.3422 34.4476 63.0348 36.2386 62.517C42.741 60.5914 48.2108 56.2064 51.4862 50.3003C50.8247 54.0382 49.3403 57.598 47.1459 60.7047C48.711 59.6691 50.147 58.4717 51.4539 57.1125C55.0682 53.3262 57.4401 48.5205 58.2468 43.3587C58.7954 45.9153 58.9567 48.5528 58.7147 51.1579C70.3642 34.8637 59.6828 17.9708 55.2134 13.521C55.1972 13.4887 55.1812 13.4725 55.1812 13.4401C55.165 13.4563 55.165 13.4563 55.165 13.4724C55.165 13.4562 55.165 13.4562 55.1488 13.4401C55.1488 13.6343 55.1327 13.8284 55.1166 14.0226C55.0682 14.3948 55.0198 14.7508 54.9552 15.1067C54.8746 15.4627 54.7778 15.8187 54.6809 16.1747C54.568 16.5145 54.4389 16.8705 54.2937 17.2103C54.1485 17.5339 53.9871 17.8737 53.8097 18.1973C53.6322 18.5048 53.4385 18.8284 53.2288 19.1196C53.019 19.4271 52.7931 19.7183 52.5672 19.9934C52.3252 20.2847 52.0671 20.5436 51.8089 20.8024C51.6476 20.9481 51.5023 21.0775 51.341 21.207C51.2119 21.3202 51.099 21.4173 50.9699 21.5306C50.6795 21.7571 50.389 21.9675 50.0663 22.1616C49.7598 22.3558 49.4371 22.55 49.1144 22.7118C48.7755 22.8736 48.4367 23.0192 48.0979 23.1649C47.759 23.2943 47.404 23.4076 47.0491 23.5047C46.6941 23.6017 46.323 23.6827 45.968 23.7474C45.5969 23.8121 45.2258 23.8445 44.8708 23.8768C44.6127 23.893 44.3545 23.9092 44.0964 23.9092C43.7253 23.9092 43.3542 23.8768 42.9992 23.8444C42.6281 23.8121 42.257 23.7635 41.902 23.6826C41.5309 23.6179 41.1759 23.5208 40.8209 23.4075H40.8048C41.1598 23.3752 41.5147 23.3428 41.8697 23.2781C42.2408 23.2133 42.5958 23.1325 42.9508 23.0354C43.3057 22.9383 43.6607 22.825 43.9995 22.6956C44.3545 22.5661 44.6933 22.4043 45.016 22.2425C45.3549 22.0807 45.6614 21.9027 45.9841 21.7085C46.2907 21.4982 46.5973 21.2878 46.8877 21.0613C47.1781 20.8348 47.4524 20.592 47.7106 20.3331C47.9849 20.0904 48.2269 19.8154 48.4689 19.5403C48.711 19.249 48.9368 18.9578 49.1466 18.6665C49.1789 18.618 49.2112 18.5532 49.2434 18.5047C49.4048 18.2458 49.5661 17.9869 49.7113 17.728C49.8888 17.4044 50.0502 17.0808 50.1954 16.741C50.3406 16.4012 50.4697 16.0614 50.5826 15.7054C50.6956 15.3656 50.7762 15.0096 50.8569 14.6536C50.9215 14.2815 50.986 13.9255 51.0183 13.5695C51.0505 13.1973 51.0828 12.8252 51.0828 12.4692C51.0828 12.2103 51.0667 11.9514 51.0506 11.6925C51.0183 11.3203 50.9699 10.9644 50.9215 10.6084C50.8569 10.2362 50.7763 9.88024 50.6795 9.52426C50.5665 9.18446 50.4536 8.82848 50.3245 8.48868C50.1954 8.14888 50.0341 7.80908 49.8727 7.48545C49.6952 7.16184 49.5178 6.83822 49.3241 6.53078C49.1144 6.22335 48.9046 5.93209 48.6787 5.64083C48.4367 5.36575 48.1947 5.09067 47.9365 4.8156C47.8074 4.68615 47.6622 4.54052 47.517 4.41108C46.7909 3.84474 46.0326 3.31077 45.2742 2.82534C45.1613 2.76059 45.0645 2.71207 44.9515 2.66353C44.4191 2.32373 43.9189 2.14564 43.4187 1.98384Z" fill="#E0234E"/>
</svg>
