<svg width="64" height="64" viewBox="0 0 64 64" fill="none" xmlns="http://www.w3.org/2000/svg">
<path d="M56.267 29.4665L34.5337 7.73317C33.867 7.0665 32.9337 6.6665 32.0003 6.6665C31.067 6.6665 30.1337 7.0665 29.467 7.73317L24.8003 12.3998L30.267 17.8665C30.8003 17.5998 31.3337 17.4665 32.0003 17.4665C34.267 17.4665 36.0003 19.1998 36.0003 21.4665C36.0003 22.1332 35.867 22.6665 35.6003 23.1998L40.9337 28.5332C41.467 28.2665 42.0003 28.1332 42.667 28.1332C44.9337 28.1332 46.667 29.8665 46.667 32.1332C46.667 34.3998 44.9337 36.1332 42.667 36.1332C40.4003 36.1332 38.667 34.3998 38.667 32.1332C38.667 31.4665 38.8003 30.9332 39.067 30.3998L33.7337 25.0665C33.6003 25.0665 33.467 25.1998 33.3337 25.1998V39.0665C34.9337 39.5998 36.0003 41.0665 36.0003 42.7998C36.0003 45.0665 34.267 46.7998 32.0003 46.7998C29.7337 46.7998 28.0003 45.0665 28.0003 42.7998C28.0003 41.0665 29.067 39.5998 30.667 39.0665V25.0665C29.067 24.5332 28.0003 23.0665 28.0003 21.3332C28.0003 20.6665 28.1337 20.1332 28.4003 19.5998L22.9337 14.1332L7.73366 29.4665C7.06699 30.1332 6.66699 31.0665 6.66699 31.9998C6.66699 32.9332 7.06699 33.8665 7.73366 34.5332L29.467 56.2665C30.1337 56.9332 31.067 57.3332 32.0003 57.3332C32.9337 57.3332 33.867 56.9332 34.5337 56.2665L56.267 34.5332C56.9337 33.8665 57.3337 32.9332 57.3337 31.9998C57.3337 31.0665 56.9337 30.1332 56.267 29.4665Z" fill="#F4511E"/>
</svg>
